HIERARCHY
ROOT Hips
{
  OFFSET 5.70366 102.999 -1.77653
  CHANNELS 6 Xposition Yposition Zposition Zrotation Xrotation Yrotation
  JOINT RightUpLeg
  {
    OFFSET -8.9458 -8.66707 0.101652
    CHANNELS 3 Zrotation Xrotation Yrotation
    JOINT RightLeg
    {
      OFFSET 0 -44.4227 1.3727
      CHANNELS 3 Zrotation Xrotation Yrotation
      JOINT RightFoot
      {
        OFFSET 0.253549 -42.0924 -1.46059
        CHANNELS 3 Zrotation Xrotation Yrotation
        JOINT RightToes
        {
          OFFSET 0.04 -4.41509 8.4991
          CHANNELS 3 Zrotation Xrotation Yrotation
          End Site
          {
            OFFSET -0.08 -0.137448 9.77979
          }
        }
      }
    }
  }
  JOINT Spine
  {
    OFFSET 0 11.8905 0
    CHANNELS 3 Zrotation Xrotation Yrotation
    JOINT Spine1
    {
      OFFSET 0 25.6574 0.127663
      CHANNELS 3 Zrotation Xrotation Yrotation
      JOINT HEad
      {
        OFFSET 0 8.73416 0.011341
        CHANNELS 3 Zrotation Xrotation Yrotation
        End Site
        {
          OFFSET -0.29 12.7742 2.51395
        }
      }
      JOINT LeftShoulder1
      {
        OFFSET 8.99 -0.362252 -0.22
        CHANNELS 3 Zrotation Xrotation Yrotation
        JOINT LeftArm
        {
          OFFSET 10.2827 -0.00337999 0.322123
          CHANNELS 3 Zrotation Xrotation Yrotation
          JOINT LeftForeArm
          {
            OFFSET 26.2597 0.099144 -1.42434
            CHANNELS 3 Zrotation Xrotation Yrotation
            JOINT LeftHand
            {
              OFFSET 22.0902 0.085362 1.02216
              CHANNELS 3 Zrotation Xrotation Yrotation
              End Site
              {
                OFFSET 13.419 -0.6 1.50291
              }
            }
          }
        }
      }
      JOINT RightShoulder
      {
        OFFSET -8.99 -0.362252 -0.22
        CHANNELS 3 Zrotation Xrotation Yrotation
        JOINT RightArm
        {
          OFFSET -10.2827 -0.00338 0.322123
          CHANNELS 3 Zrotation Xrotation Yrotation
          JOINT RightForeArm
          {
            OFFSET -26.364 0.099144 -1.42434
            CHANNELS 3 Zrotation Xrotation Yrotation
            JOINT RightHand
            {
              OFFSET -22.0324 0.085362 1.02216
              CHANNELS 3 Zrotation Xrotation Yrotation
              End Site
              {
                OFFSET -13.3284 -0.6 1.50291
              }
            }
          }
        }
      }
    }
  }
  JOINT LeftUpLeg
  {
    OFFSET 8.9458 -8.66707 0.101652
    CHANNELS 3 Zrotation Xrotation Yrotation
    JOINT LeftLeg
    {
      OFFSET 0 -44.4227 1.3727
      CHANNELS 3 Zrotation Xrotation Yrotation
      JOINT LeftFoot
      {
        OFFSET -0.253549 -42.0924 -1.46059
        CHANNELS 3 Zrotation Xrotation Yrotation
        JOINT LeftToes
        {
          OFFSET -0.04 -4.41509 8.4991
          CHANNELS 3 Zrotation Xrotation Yrotation
          End Site
          {
            OFFSET 0.08 -0.047448 9.77979
          }
        }
      }
    }
  }
}
MOTION
Frames:	12
Frame Time:	0.0416667
-194.913 103.534 -46.15 0.108288 0.198553 88.8661 -0.476894 -2.40055 -2.2407 -1.57435 13.3051 -1.84467 -5.69557 -7.36056 -0.147661 0.0462048 0.000530888 0.662642 1.11454 0.774077 0.239408 -2.61161 -0.970658 0.6697 3.36882 12.83 -0.506376 -0.151968 -0.0481751 4.27708 4.08107 -39.5898 10.3235 1.45475 -3.40504 -2.64728 -34.5898 9.18031 7.58634 8.06841 0.362002 -2.70173 -7.77213 -33.987 -12.2169 -5.73063 14.4979 8.63979 0.98697 10.0194 2.30993 -1.15053 -1.12028 2.13484 2.33347 10.1929 19.0981 0.642767 -4.34596 -0.00402962 -1.28341e-009 8.75266e-006 -1.48244e-008 
-194.99 103.534 -46.1156 0.100507 0.193267 88.9157 -0.446902 -2.4704 -2.22577 -1.56136 13.3394 -1.92044 -5.76136 -7.33643 -0.147653 0.0462048 0.000530888 0.662642 1.09693 0.842065 0.226838 -2.56297 -1.00694 0.650653 3.36056 12.6342 -0.411866 -0.0248942 -0.0373856 4.16043 4.12735 -39.5521 10.5224 1.43416 -3.3812 -2.72621 -33.0099 9.32321 7.22242 8.102 0.374353 -2.62608 -7.81508 -33.8827 -12.2942 -5.67625 14.3581 8.60232 1.05268 10.0203 2.30334 -1.10804 -1.22128 2.13492 2.32043 10.2756 19.0225 0.642767 -4.3438 -0.00402961 -1.28341e-009 8.75266e-006 -1.48244e-008 
-195.1 103.539 -46.0612 0.174016 0.202709 88.9416 -0.442148 -2.46238 -2.26681 -1.51661 13.3494 -1.93168 -5.88226 -7.29789 -0.147641 0.0462048 0.000530888 0.662642 1.06586 0.988685 0.191469 -2.49172 -0.984687 0.607744 3.36376 12.3972 -0.00330931 0.0841314 -0.043849 4.24041 4.03977 -39.7646 10.4186 1.60342 -2.84769 -2.68242 -31.0539 9.52061 6.64549 8.16132 0.392495 -2.51598 -7.77866 -33.6775 -12.2738 -5.50037 13.7977 8.53188 0.892429 10.007 2.11537 -1.08119 -1.21256 2.13635 2.32074 10.2735 18.9809 0.635048 -4.28328 -0.00402928 -1.28341e-009 8.75266e-006 -1.48244e-008 
-195.191 103.547 -46.0087 0.219786 0.211462 88.8607 -0.429549 -2.46501 -2.26657 -1.49917 13.3198 -1.85939 -5.91666 -7.24669 -0.147507 0.0462048 0.000530888 0.662642 1.00477 1.08683 0.216308 -2.33195 -0.900534 0.608706 3.27617 12.3328 0.283797 -0.068718 -0.064249 4.46499 4.0214 -39.7962 10.1667 1.56876 -3.04736 -2.65277 -29.242 9.69388 6.07569 8.06656 0.381187 -2.58076 -7.58821 -33.7196 -12.0583 -5.4811 13.5394 8.41395 0.708377 9.99622 2.19466 -1.07495 -1.14443 2.12895 2.34958 10.1287 19.0546 0.606486 -4.17636 -0.00402873 -1.28341e-009 8.75266e-006 -1.48244e-008 
-195.284 103.55 -45.9531 0.146658 0.229506 88.7512 -0.392884 -2.62706 -2.18041 -1.53518 13.3337 -1.81272 -5.83913 -7.19395 -0.144744 0.0462048 0.000530888 0.662642 0.998471 1.08811 0.306385 -2.2738 -0.819677 0.689118 3.17914 12.3963 0.121319 -0.205007 -0.0716148 4.51734 4.12103 -39.4719 10.1856 1.20537 -4.23504 -2.841 -27.7542 9.82319 5.60178 8.07537 0.351196 -2.77001 -7.59104 -34.187 -11.8865 -5.8479 14.3207 8.2503 0.976215 10.0229 2.73101 -1.09057 -1.23778 2.08472 2.40632 10.0501 19.1866 0.553598 -4.07928 -0.00402824 -1.28341e-009 8.75266e-006 -1.48244e-008 
-195.389 103.551 -45.8928 0.0775511 0.276421 88.7673 -0.386225 -2.80158 -2.14845 -1.55518 13.3968 -1.84588 -5.84318 -7.16252 -0.142529 0.0462048 0.000530888 0.662642 1.05883 1.07084 0.344068 -2.38962 -0.702668 0.750892 3.19206 12.5133 -0.101715 -0.103135 -0.0729815 4.42532 4.04154 -39.4141 10.2572 1.10441 -4.62983 -3.00982 -26.6053 9.99068 4.91968 8.44119 0.344681 -2.82991 -7.84265 -34.3845 -11.9274 -5.9995 14.7528 8.34029 1.07948 10.0302 2.74123 -1.12323 -1.37835 2.02079 2.4485 10.0414 19.2197 0.503869 -3.99798 -0.00402783 -1.28341e-009 8.75266e-006 -1.48244e-008 
-195.498 103.553 -45.8393 0.0410522 0.314546 88.9034 -0.409212 -2.93609 -2.20528 -1.50959 13.4787 -1.9396 -5.95751 -7.15581 -0.140533 0.0462048 0.000530888 0.662642 1.08001 1.14142 0.313096 -2.37726 -0.637416 0.725675 3.22355 12.6175 -0.0896089 -0.179316 -0.0720824 4.44141 3.7276 -39.8082 9.94108 1.37144 -3.64099 -2.99994 -25.4299 10.2199 3.90652 8.79594 0.358787 -2.76178 -7.91985 -33.9606 -12.0669 -5.5901 13.8554 8.76954 0.628258 9.98928 2.05758 -1.11721 -1.50146 1.98949 2.43462 10.0411 19.1094 0.506511 -3.94211 -0.00402756 -1.28341e-009 8.75266e-006 -1.48244e-008 
-195.622 103.555 -45.7848 -0.0492138 0.327583 89.048 -0.406041 -3.14223 -2.21615 -1.45762 13.5692 -2.08438 -5.99443 -7.14158 -0.138801 0.0462048 0.000530888 0.662642 1.09319 1.33184 0.27247 -2.29386 -0.7894 0.670125 3.35896 12.6929 0.0596475 -0.602639 -0.0713595 4.50638 3.38212 -40.0281 9.42528 1.34475 -2.6721 -3.1534 -23.5889 10.3692 3.0966 9.09375 0.380125 -2.65017 -7.86353 -33.7141 -12.1891 -5.35736 13.5448 9.09622 0.448332 9.97634 1.96346 -1.07803 -1.75297 1.96864 2.41758 10.1604 18.9857 0.511784 -3.91341 -0.00402742 -1.28341e-009 8.75266e-006 -1.48244e-008 
-195.746 103.557 -45.6961 -0.141012 0.32777 89.1723 -0.321905 -3.33882 -2.12338 -1.47122 13.6294 -2.30179 -6.01878 -7.10277 -0.13738 0.0462048 0.000530888 0.662642 1.1783 1.50618 0.201838 -2.43296 -0.904406 0.618364 3.75495 12.7622 0.277559 -0.960591 -0.0709978 4.47556 3.01185 -39.8459 9.07394 0.928414 -2.37086 -3.53359 -21.3515 10.4189 2.60565 9.76789 0.407619 -2.52973 -7.76822 -33.9652 -12.0872 -5.54142 14.7539 9.23505 0.644187 9.99589 2.47201 -1.02648 -2.05086 1.93547 2.44556 10.3749 18.9003 0.440325 -3.87109 -0.00402722 -1.28341e-009 8.75266e-006 -1.48244e-008 
-195.847 103.56 -45.5654 -0.179498 0.312826 89.2592 -0.181031 -3.45146 -2.02334 -1.50355 13.6597 -2.51073 -6.21538 -7.06699 -0.136253 0.0462048 0.000530888 0.662642 1.22854 1.57724 0.120948 -2.55764 -0.7184 0.564998 4.09726 12.7244 0.356351 -1.27684 -0.080019 4.54621 2.4875 -39.7864 8.54904 0.701707 -2.06459 -3.67267 -19.836 10.4889 2.01218 10.6093 0.421663 -2.50215 -7.27016 -34.098 -11.6384 -5.48527 15.7786 9.60005 0.614539 9.99455 2.51459 -0.926695 -2.23602 1.93884 2.46385 10.5159 18.808 0.352948 -3.8095 -0.00402693 -1.28341e-009 8.75266e-006 -1.48244e-008 
-195.935 103.564 -45.4293 -0.199488 0.321575 89.2539 -0.132525 -3.54098 -2.05743 -1.44046 13.684 -2.52015 -6.43913 -7.04281 -0.134924 0.0462048 0.000530888 0.662642 1.15333 1.71588 0.0842616 -2.41977 -0.559159 0.515858 4.07315 12.5957 0.242136 -1.89442 -0.113181 4.822 1.78787 -40.1646 7.54436 0.873316 -1.20115 -3.50267 -18.9338 10.54 1.56094 11.1961 0.43943 -2.44203 -6.51457 -33.9895 -11.1563 -5.1897 16.4192 10.115 0.695435 10.0003 2.54343 -0.833855 -2.32209 1.96459 2.44834 10.5297 18.7661 0.301306 -3.7331 -0.00348903 -1.28341e-009 8.75266e-006 -1.48244e-008 
-196.005 103.572 -45.3047 -0.206938 0.386631 89.1465 -0.206909 -3.60126 -2.19597 -1.30862 13.6819 -2.3257 -6.53388 -7.00756 -0.133432 0.0462048 0.000530888 0.662642 1.08431 1.90739 0.0491819 -2.38563 -0.568913 0.47889 3.96645 12.5905 0.29033 -2.45335 -0.132212 4.94845 0.93859 -40.5904 6.74938 1.10481 -0.105059 -3.50914 -17.5047 10.5106 1.44439 11.8422 0.486712 -2.23587 -5.83248 -34.1112 -10.7574 -5.1177 18.209 10.7479 1.01846 10.0363 3.33448 -0.835386 -2.32361 1.94251 2.4671 10.4383 18.8729 0.211039 -3.59845 -0.00146767 -1.28341e-009 8.75266e-006 -1.48244e-008 
